<svg width="286" height="240" viewBox="0 0 286 240" fill="none" xmlns="http://www.w3.org/2000/svg">
<path d="M212.599 156.811C210.911 156.634 209.444 156.172 208.197 155.424C206.95 154.676 206.002 153.727 205.353 152.578C204.712 151.429 204.449 150.16 204.564 148.77L209.989 149.339C209.945 150.195 210.219 150.917 210.813 151.505C211.407 152.086 212.152 152.423 213.049 152.517C213.75 152.59 214.388 152.501 214.962 152.249C215.537 151.997 216.008 151.609 216.376 151.083C216.744 150.551 216.963 149.919 217.032 149.187C217.118 148.442 217.031 147.774 216.773 147.183C216.523 146.593 216.139 146.115 215.621 145.748C215.112 145.375 214.503 145.151 213.795 145.077C213.125 144.999 212.473 145.079 211.839 145.317C211.212 145.556 210.717 145.919 210.353 146.407L205.512 144.962L207.826 132.59L222.677 134.148L222.204 138.658L211.953 137.582L210.849 142.985L210.985 142.999C211.436 142.399 212.11 141.937 213.004 141.612C213.908 141.28 214.905 141.171 215.998 141.286C217.384 141.431 218.586 141.885 219.603 142.647C220.628 143.402 221.394 144.381 221.9 145.584C222.414 146.788 222.593 148.125 222.439 149.594C222.272 151.184 221.748 152.554 220.866 153.703C219.991 154.852 218.843 155.707 217.42 156.266C216.007 156.819 214.399 157 212.599 156.811ZM234.201 159.329C232.182 159.118 230.492 158.457 229.13 157.346C227.77 156.229 226.788 154.728 226.186 152.844C225.585 150.953 225.421 148.738 225.695 146.2C225.968 143.661 226.59 141.548 227.559 139.86C228.537 138.164 229.801 136.93 231.353 136.156C232.912 135.375 234.702 135.09 236.721 135.302C238.74 135.514 240.432 136.164 241.795 137.251C243.167 138.332 244.156 139.803 244.76 141.664C245.365 143.526 245.531 145.722 245.258 148.252C244.991 150.799 244.367 152.935 243.386 154.66C242.405 156.385 241.134 157.65 239.572 158.453C238.018 159.25 236.228 159.542 234.201 159.329ZM234.681 154.752C235.887 154.879 236.927 154.367 237.801 153.217C238.677 152.06 239.245 150.204 239.505 147.649C239.681 145.976 239.656 144.579 239.43 143.459C239.206 142.331 238.82 141.468 238.274 140.87C237.727 140.271 237.051 139.93 236.244 139.845C235.046 139.72 234.015 140.225 233.149 141.36C232.284 142.488 231.717 144.303 231.447 146.803C231.262 148.498 231.276 149.92 231.491 151.07C231.713 152.22 232.1 153.103 232.653 153.717C233.206 154.323 233.882 154.668 234.681 154.752ZM256.765 161.697C254.745 161.485 253.055 160.824 251.694 159.714C250.333 158.596 249.352 157.095 248.75 155.212C248.148 153.32 247.984 151.105 248.258 148.567C248.532 146.029 249.154 143.915 250.123 142.227C251.1 140.532 252.365 139.297 253.916 138.523C255.476 137.742 257.265 137.458 259.285 137.67C261.304 137.881 262.995 138.531 264.359 139.619C265.731 140.7 266.719 142.171 267.324 144.032C267.928 145.893 268.094 148.089 267.821 150.62C267.554 153.166 266.93 155.302 265.95 157.028C264.969 158.753 263.697 160.017 262.135 160.821C260.582 161.618 258.791 161.91 256.765 161.697ZM257.245 157.12C258.45 157.246 259.49 156.735 260.365 155.585C261.241 154.427 261.808 152.571 262.069 150.016C262.244 148.344 262.219 146.947 261.994 145.826C261.77 144.698 261.384 143.835 260.837 143.237C260.291 142.639 259.614 142.297 258.808 142.213C257.61 142.087 256.578 142.592 255.713 143.728C254.848 144.856 254.281 146.67 254.011 149.171C253.825 150.865 253.84 152.287 254.055 153.437C254.277 154.588 254.664 155.47 255.217 156.084C255.77 156.691 256.446 157.036 257.245 157.12Z" fill="#070707"/>
<path d="M226.237 206.632C226.237 206.632 224.107 205.115 222.56 202.964C222.498 203.066 222.437 203.168 222.372 203.27C220.941 205.507 217.826 206.672 215.249 206.71H50.3064C50.2859 206.71 50.2655 206.707 50.2416 206.703C48.9466 206.587 47.4062 206.205 46.2577 205.609C45.3818 205.156 42.9588 202.994 42.9588 202.091V103.852C42.9588 103.232 43.4665 102.724 44.0868 102.724H222.451C223.071 102.724 223.579 103.232 223.579 103.852V115.337L223.613 117.293C223.93 117.314 224.25 117.338 224.57 117.358C224.57 117.358 227.665 117.638 230.415 117.887L230.398 116.359L230.408 82.4315C230.885 78 225.879 71.0256 221.363 71.0256H97.7728C97.0639 71.0256 96.9106 70.0302 97.5888 69.8155L103.205 68.0531L219.077 36.0103C221.813 35.2092 224.185 33.0685 224.829 30.2323C224.894 29.946 224.949 29.6767 225.024 29.4517C225.177 29.0052 225.221 28.5859 225.187 26.6292C225.126 23.2988 220.624 8.22163 219.21 5.34119C218.283 3.45612 216.33 1.7483 214.449 0.885871C213.573 0.483632 213.276 0.326826 212.99 0.248424C212.762 0.187065 212.809 0.163203 212.186 0.0882096C211.092 -0.0447341 210.281 0.00298926 209.122 0.0370774C209.074 0.0370774 208.43 0.146159 208.348 0.17343L33.597 49.8091C33.5527 49.8228 33.505 49.8398 33.4641 49.8637C23.6253 55.2053 27.7523 64.6034 29.7699 73.1425C31.9714 82.4758 34.783 91.7103 36.4734 101.139C36.4802 101.177 36.4836 101.214 36.4836 101.252L36.5074 180.087C36.5074 180.373 36.3098 180.629 36.0303 180.69C26.3005 182.903 15.6983 177.762 10.5181 169.431C8.98455 166.967 6.88864 162.215 6.61941 160.105C5.6754 152.704 7.727 144.601 12.2903 138.687C12.9923 137.777 16.3288 135.077 16.4923 134.685C17.3273 132.711 15.8994 130.39 13.8137 130.308C10.4841 130.175 5.17442 137.562 3.70899 140.33C-8.27349 162.971 10.4636 190.845 35.7747 187.365C36.1496 187.314 36.4836 187.597 36.4836 187.975V202.428C36.5756 207.583 40.9276 212.437 46.9052 212.798L100.015 212.975C100.332 212.975 100.598 213.217 100.629 213.531L102.53 232.6C102.568 232.965 102.282 233.278 101.914 233.278H91.1784C91.0591 233.278 89.4948 234.233 89.2937 234.461C87.8249 236.121 88.7519 239.196 90.9091 239.683C92.9437 240.14 104.146 240.045 106.521 239.762C108.416 239.537 109.459 238.095 109.421 236.189C109.391 234.686 109.019 229.706 108.723 228.397C108.661 228.124 108.586 227.828 108.508 227.214C108.402 226.375 108.378 226.065 108.355 225.305C108.235 221.726 107.032 217.434 107.008 214.001C107.008 213.62 107.189 212.825 107.537 212.825H153.769C154.11 212.825 154.386 213.098 154.386 213.439C154.386 214.312 154.444 215.191 154.393 216.06C154.001 222.448 152.355 229.955 152.348 236.179C152.348 237.979 153.851 239.557 155.579 239.762C157.91 240.038 168.853 240.13 170.85 239.683C172.888 239.227 173.894 236.169 172.581 234.546C172.415 234.338 171.644 233.435 170.581 233.278H159.774C159.437 233.278 159.154 233.005 159.154 232.668C159.174 229.535 160.04 226.239 160.149 223.188C160.18 222.35 160.234 222.077 160.33 221.075C160.395 220.403 160.408 220.124 160.48 219.469C160.562 218.719 160.63 218.453 160.701 217.557C160.749 216.936 160.8 216.483 160.831 216.203C160.943 215.133 160.909 213.613 161.284 212.969C161.318 212.907 161.39 212.876 161.458 212.876L218.644 212.842C220.273 212.801 222.062 212.294 223.507 211.673C223.766 211.561 224.011 211.421 224.247 211.268C225.32 210.555 225.32 210.552 225.606 210.289C225.681 210.221 225.767 210.143 225.855 210.064C226.199 208.223 226.414 206.771 226.227 206.635L226.237 206.632ZM192.733 80.0214C193.343 79.3226 193.905 78.4022 194.74 77.9557C194.812 77.9182 194.897 77.9114 194.975 77.9114L219.97 77.8705C221.653 77.8534 223.579 79.8169 223.579 81.419V95.6304C223.579 95.9713 223.303 96.2474 222.962 96.2474H179.967C179.435 96.2474 179.152 95.6201 179.503 95.2213C182.55 91.7614 185.518 88.1958 188.596 84.7767C189.935 83.2905 191.428 81.5179 192.73 80.0214H192.733ZM154.41 80.7475C154.846 80.2907 156.595 77.8398 156.956 77.8398H184.707C185.242 77.8398 185.525 78.4738 185.167 78.8727L169.749 96.0428C169.634 96.1724 169.467 96.2474 169.289 96.2474H141.695C141.174 96.2474 140.891 95.644 141.214 95.2384C144.394 91.2603 148.047 87.7492 151.524 83.9893C152.478 82.9598 153.354 81.8452 154.407 80.7441L154.41 80.7475ZM119.979 77.8398H146.664C147.209 77.8398 147.485 78.4875 147.114 78.8863C146.551 79.4863 145.9 80.0351 145.399 80.5907C144.394 81.7054 143.355 82.803 142.298 83.9723C138.693 87.9606 135.199 92.0648 131.583 96.0463C131.464 96.1758 131.297 96.2508 131.123 96.2508H105.103C104.568 96.2508 104.289 95.6167 104.643 95.2179C105.867 93.8476 106.947 92.6511 108.106 91.3694C108.573 90.8546 109.258 90.1865 109.769 89.6172C112.983 86.0482 118.187 79.7283 119.158 78.7568C119.281 78.634 119.897 77.8432 119.979 77.8432V77.8398ZM110.076 77.8398C110.611 77.8398 110.894 78.4738 110.536 78.8727L95.118 96.0428C95.0021 96.1724 94.8351 96.2474 94.6579 96.2474H75.6141C75.2733 96.2474 74.9972 95.9713 74.9972 95.6304V78.4602C74.9972 78.1193 75.2733 77.8432 75.6141 77.8432H110.076V77.8398ZM194.822 10.8294C195.405 10.7135 195.984 10.5635 196.543 10.3999C200.248 9.31927 205.946 7.17513 209.527 6.67063C212.302 6.27861 213.075 7.60464 213.944 9.92945C215.352 13.686 216.681 19.2321 217.693 23.2238C217.819 23.7181 218.351 25.6441 218.644 27.0076C218.763 27.553 218.153 27.9621 217.69 27.6485L194.594 11.9441C194.14 11.6373 194.28 10.9316 194.819 10.8294H194.822ZM158.83 20.916L184.574 13.5462C184.751 13.4951 184.939 13.5257 185.092 13.628L210.291 30.6823C210.72 30.972 210.621 31.6299 210.127 31.7867C210.028 31.8174 209.936 31.8447 209.861 31.872C209.759 31.9095 209.548 31.9879 209.446 32.022C201.376 34.4729 193.06 36.2898 184.915 38.5123C184.741 38.5601 184.557 38.5294 184.411 38.4271C176.068 32.7719 167.575 27.3928 159.277 21.6728C158.977 21.4649 158.65 21.7273 158.834 20.916H158.83ZM123.909 30.8084L149.135 23.742C149.179 23.7283 149.223 23.7215 149.271 23.7215L150.603 23.6533C150.736 23.6465 150.869 23.684 150.982 23.759L175.052 40.1247C175.124 40.1758 175.189 40.2406 175.233 40.3156L175.315 40.4485C175.553 40.8406 175.291 41.3348 174.831 41.3791C174.691 41.3928 174.555 41.4132 174.422 41.4507C165.735 43.7415 157.164 46.6355 148.375 48.4729C148.214 48.507 148.047 48.4729 147.911 48.3877C139.725 43.1006 131.444 37.7556 123.701 31.9026C123.292 31.5959 123.418 30.9482 123.909 30.8118V30.8084ZM89.5221 40.6803L114.332 33.6718C114.513 33.6207 114.707 33.6548 114.86 33.7673C122.706 39.4566 131.038 44.5084 138.699 50.4295C139.115 50.75 138.958 51.4113 138.444 51.5238C130.098 53.3407 122.058 56.4529 113.657 57.9732C113.504 58.0005 113.344 57.9698 113.211 57.888C105.093 52.768 97.1048 47.3991 89.3278 41.7848C88.9086 41.4814 89.0245 40.8269 89.5221 40.6837V40.6803ZM61.8458 48.3843C68.0313 47.2423 74.0123 44.88 80.1978 43.6051C80.3648 43.571 80.5386 43.6051 80.6783 43.704L104.231 60.0356C104.664 60.3355 104.548 61.0037 104.04 61.14L75.6243 68.8405C75.321 68.9223 74.9972 68.7655 74.8882 68.4724C74.4213 67.2214 73.8283 63.9455 73.5488 63.0933C71.1394 55.8018 67.0975 53.7702 61.5902 49.4887L61.58 49.4785C61.1574 49.1512 61.3176 48.4797 61.8458 48.3808V48.3843ZM42.1272 95.9201L33.5186 59.8549C33.4948 59.7526 33.4948 59.6436 33.5255 59.5413C34.081 57.5676 35.1477 56.2109 37.0698 55.42C39.1111 54.5781 50.8926 51.7078 52.4091 52.393C54.2596 53.2316 56.7407 53.702 58.7684 54.7076C63.359 56.9881 66.8351 61.9991 68.0109 66.9384C69.3025 72.3721 68.5834 79.8919 68.5118 85.4994C68.4573 89.7059 69.967 94.2362 65.3356 96.4485C65.2504 96.4894 65.155 96.5098 65.0595 96.5098L42.727 96.3974C42.4408 96.3974 42.1954 96.1997 42.1272 95.9235V95.9201Z" fill="#070707"/>
<path d="M224.567 184.414C224.567 186.902 224.608 187.673 224.618 188.821C225.682 187.734 226.588 186.759 226.766 185.331C227.209 181.731 227.891 179.584 227.614 176.202C227.574 175.708 227.185 175.309 226.691 175.258C226.145 175.2 225.389 175.135 224.591 175.07C224.639 178.288 224.564 181.244 224.567 184.417V184.414Z" fill="#070707"/>
<path d="M251.835 45.3254C253.948 47.4525 253.958 53.4111 257.645 52.0953C259.82 51.318 259.526 47.0127 261.789 44.9845C263.575 43.3789 264.601 43.9414 266.278 43.396C266.537 43.3107 266.537 42.9085 266.642 42.8608C267.355 42.5438 267.9 42.8778 268.336 41.954C268.435 41.7461 268.476 39.4963 268.408 39.3293C267.804 37.8635 263.033 37.5499 261.057 35.4159C258.559 32.7128 260.436 27.3302 255.522 28.4892C253.358 28.9971 253.91 32.6173 252.963 34.4478C252.441 35.4603 250.628 37.1442 249.568 37.5294C248.014 38.0919 245.145 37.7101 244.726 39.844C243.836 44.3743 249.187 42.6528 251.838 45.3254H251.835ZM256.49 38.2828C257.744 38.16 258.139 39.9326 259.366 40.011C259.653 40.4133 257.403 42.6563 257.107 42.7074C256.95 42.7347 254.595 40.9655 254.568 40.8121C254.438 40.011 255.638 38.368 256.49 38.2862V38.2828Z" fill="#070707"/>
<path d="M267.589 59.988C266.107 62.9128 268.577 67.2624 271.427 65.2546C271.484 65.2137 272.135 64.1536 272.173 64.0752C274.419 59.6301 269.474 56.269 267.586 59.988H267.589Z" fill="#070707"/>
<path d="M267.02 66.4533C263.875 62.1786 258.46 67.2271 261.574 70.0087C263.824 72.0165 268.091 70.1962 267.525 66.8078C267.481 66.5385 267.119 66.5896 267.02 66.4567V66.4533Z" fill="#070707"/>
<path d="M273.097 69.9024C276.542 72.8851 282.074 67.9048 277.616 65.5562C273.751 63.5211 270.279 67.4651 273.097 69.9024Z" fill="#070707"/>
<path d="M269.157 77.4384C272.408 78.386 273.935 72.9524 271.532 70.7844C268.005 67.604 265.084 76.2487 269.157 77.4384Z" fill="#070707"/>
<path d="M174.077 150.867C163.782 152.592 166.011 170.925 178.003 169.111C189.127 167.431 188.152 148.508 174.077 150.867Z" fill="#EF0C0C"/>
<path d="M81.7212 150.87C71.6779 152.564 73.4092 170.065 84.6623 169.168C96.6346 168.214 95.6156 148.524 81.7212 150.87Z" fill="#EF0C0C"/>
<path d="M115.881 163.309C118.757 165.657 120.301 162.552 122.595 161.144C126.667 158.645 131.585 158.039 136.094 159.791C138.582 160.755 141.983 164.59 144.266 164.086C146.072 163.687 146.86 161.611 146.488 159.965C146.045 158.011 141.018 155.114 139.182 154.316C133.541 151.869 127.816 151.927 122.125 154.2C119.085 155.414 111.406 159.658 115.878 163.309L115.881 163.309Z" fill="#070707"/>
<path d="M98.7679 138.584C93.3424 139.392 93.2504 151.121 99.3609 151.138C105.523 151.152 104.933 137.667 98.7679 138.584Z" fill="#070707"/>
<path d="M163.962 139.692C158.578 134.766 154.038 145.845 158.612 149.986C163.809 154.69 168.751 144.072 163.962 139.692Z" fill="#070707"/>
<path d="M53.7828 59.1653C46.6362 60.205 46.7794 70.4348 53.3841 71.3347C63.6728 72.7358 62.4357 57.9108 53.7828 59.1653Z" fill="#070707"/>
<path d="M285.09 141.209C282.667 131.869 276.048 123.998 266.796 121.585C266.666 121.551 265.044 121.111 264.915 121.087C260.9 120.378 255.88 120.31 251.654 119.758C245.976 119.018 239.903 118.783 234.508 118.258C234.099 118.217 232.344 118.06 230.419 117.883L230.49 124.537C235.851 124.936 241.209 125.362 246.552 125.88C251.869 126.395 258.3 126.753 263.435 127.741C282.759 131.46 284.899 159.242 268.98 168.763C261.237 173.392 254.203 170.866 245.874 170.263C241.1 169.915 236.056 169.666 230.981 169.349L231.155 185.115C230.968 189.369 230.876 191.626 230.818 193.098C234.059 192.495 237.293 196.418 234.648 199.527C233.53 200.843 231.898 200.986 230.477 200.454C230.439 201.184 230.392 202.026 230.34 203.011C230.31 203.584 230.099 204.484 229.87 205.009C229.386 206.11 229.151 206.478 228.613 207.146C227.583 208.424 227.246 208.738 226.837 209.147C226.605 209.379 226.207 209.747 225.866 210.057C225.256 213.309 224.233 217.781 224.257 218.402C224.407 222.022 230.218 223.682 231.302 218C231.561 216.643 231.809 210.374 232.065 208.121C232.116 207.668 232.46 207.303 232.907 207.224C243.189 205.373 245.431 191.612 235.493 187.641C235.067 187.47 234.802 187.041 234.846 186.581L235.729 177.264C235.78 176.733 236.223 176.32 236.758 176.323C248.413 176.378 260.563 181.004 271.366 174.902C282.963 168.354 288.28 153.522 285.086 141.209H285.09Z" fill="#070707"/>
<path d="M221.166 200.161C221.425 201.16 221.95 202.111 222.56 202.963C223.784 200.928 224.118 199.039 224.244 197.083C224.421 194.284 224.571 193.609 224.609 191.005C224.622 190.023 224.626 189.375 224.619 188.816C223.487 189.975 222.185 191.261 221.397 193.354C220.474 195.815 220.566 197.87 221.162 200.158L221.166 200.161Z" fill="#070707"/>
<path d="M194.427 136.446C194.539 136.109 194.577 135.891 194.652 135.724C194.683 135.656 194.812 135.386 194.911 135.182C198.37 128.122 203.554 124.008 211.498 123.19C211.695 123.169 211.896 123.169 212.091 123.183C215.965 123.486 219.844 123.766 223.725 124.045L223.613 117.296C214.585 116.669 206.931 115.38 198.905 120.834C181.057 132.963 181.487 164.252 202.296 171.513C205.278 172.553 211.095 173.8 220.461 174.748C220.805 174.782 222.802 174.922 224.588 175.068C224.577 174.383 224.564 173.691 224.54 172.975L224.472 168.895C220.147 168.547 215.884 168.094 211.832 167.433C195.899 164.832 189.462 151.329 194.424 136.453L194.427 136.446Z" fill="#070707"/>
<path d="M228.612 207.148C229.151 206.48 229.386 206.111 229.87 205.01C230.098 204.485 230.309 203.586 230.34 203.013C230.395 202.028 230.439 201.186 230.476 200.456C228.026 199.536 226.21 196.597 228.779 194.17C229.42 193.564 230.118 193.23 230.817 193.1C230.875 191.627 230.967 189.371 231.155 185.117L230.981 169.351C228.81 169.214 226.636 169.068 224.471 168.891L224.54 172.971C224.563 173.687 224.577 174.379 224.587 175.064C225.385 175.129 226.141 175.194 226.687 175.251C227.181 175.303 227.569 175.701 227.61 176.196C227.886 179.574 227.201 181.721 226.762 185.324C226.588 186.753 225.678 187.728 224.615 188.815C224.621 189.374 224.618 190.022 224.604 191.004C224.567 193.608 224.417 194.279 224.24 197.082C224.117 199.038 223.78 200.927 222.556 202.962C224.103 205.113 226.233 206.63 226.233 206.63C226.421 206.763 226.21 208.215 225.862 210.059C226.203 209.749 226.601 209.38 226.833 209.149C227.242 208.74 227.58 208.426 228.609 207.148H228.612Z" fill="#070707"/>
<path d="M223.616 117.296L223.729 124.046C225.981 124.209 228.237 124.373 230.49 124.54L230.419 117.886C227.668 117.637 224.574 117.358 224.574 117.358C224.254 117.337 223.933 117.317 223.616 117.293V117.296Z" fill="#070707"/>
</svg>
