<svg width="16" height="16" viewBox="0 0 16 16" fill="none" xmlns="http://www.w3.org/2000/svg">
<path d="M6.15918 0.216797C10.4579 -0.800059 14.7672 1.86061 15.7842 6.15918C16.8009 10.4577 14.1404 14.7663 9.8418 15.7832C5.54313 16.8001 1.23388 14.1403 0.216797 9.8418C-0.800176 5.54318 1.86043 1.23374 6.15918 0.216797ZM11.7939 3.96094C11.05 3.78721 10.3465 3.906 9.73145 4.38184C9.20858 4.78676 8.91838 5.35046 8.70996 5.96289C8.67023 6.07997 8.71782 6.09642 8.81543 6.06348C9.02893 5.99076 9.2483 5.95685 9.47363 5.97461C9.79894 6.00005 9.98694 6.19281 10.0039 6.51855C10.0128 6.68923 10.0072 6.86022 9.9502 7.02246C9.69357 7.75341 9.29715 8.40339 8.76953 8.96777C8.5265 9.2276 8.33293 9.18612 8.15625 8.87207C8.01176 8.61555 7.92913 8.33544 7.85645 8.05273C7.63873 7.20389 7.52446 6.33545 7.37988 5.47266C7.31731 5.09809 7.22075 4.73459 6.99414 4.4209C6.7946 4.14491 6.52573 4.00402 6.18164 3.99219C5.84115 3.98049 5.56541 4.13504 5.30176 4.31543C4.57208 4.81554 3.9646 5.46015 3.29199 6.02832C3.23196 6.07905 3.24203 6.12264 3.28516 6.17676C3.39412 6.31316 3.50438 6.44977 3.60742 6.59082C3.65811 6.65962 3.69948 6.65734 3.76367 6.61133C3.87989 6.52765 3.99938 6.44869 4.12109 6.37305C4.46352 6.15956 4.61606 6.19325 4.8418 6.5293C4.88027 6.58637 4.91416 6.64713 4.94629 6.70801C5.09799 6.99539 5.20382 7.30098 5.29004 7.61328C5.55089 8.55899 5.80156 9.508 6.07129 10.4512C6.21544 10.9554 6.43881 11.4264 6.81836 11.8018C7.08428 12.0647 7.40232 12.1661 7.78027 12.0879C8.32387 11.9754 8.76835 11.6854 9.18262 11.3379C10.0271 10.629 10.6942 9.76337 11.332 8.87402C11.7941 8.23059 12.2135 7.56059 12.501 6.81738C12.6671 6.38791 12.7645 5.94544 12.751 5.46777H12.752C12.7368 5.34445 12.7271 5.2064 12.7021 5.07129C12.604 4.53457 12.3641 4.09407 11.7939 3.96094Z" fill="#6F2DF3"/>
</svg>
